#!OML:ASF H:\LiuWeirdWalks\Patient Classification 1\Patient 1\Session 1\male.ASF
:FULLY-SPECIFIED
:DEGREES
1484
root 1.7547 17.8612 43.6642 9.16834 0.530323 -3.93213
lowerback -8.50282 2.80806 5.59569
upperback -2.84201 3.25733 0.489718
thorax 2.0896 1.62232 -2.29246
lowerneck -19.9034 -4.15133 0.776446
upperneck 27.8715 -5.8987 -1.13857
head 12.4859 -2.68199 -1.5289
rclavicle 1.18054e-014 7.57867e-015
rhumerus -31.6101 -17.773 -79.0802
rradius 24.9192
rwrist -2.00592
rhand -16.3355 -1.93862
rfingers 7.12502
rthumb 9.87646 -31.687
lclavicle 1.18054e-014 7.57867e-015
lhumerus -32.8026 -1.95382 86.0881
lradius 24.4143
lwrist 5.9207
lhand -13.7503 -2.56571
lfingers 7.12502
lthumb 12.3699 27.0483
rfemur -13.182 0.186219 23.5043
rtibia 27.0266
rfoot -12.0264 -17.8024
rtoes -5.80492
lfemur -14.9291 -3.81917 -12.5286
ltibia 26.7964
lfoot -11.13 16.3381
ltoes -8.19277
1485
root 1.75988 17.8598 43.6687 8.98497 0.547009 -4.03279
lowerback -8.33117 2.88409 5.7244
upperback -2.81725 3.35969 0.46037
thorax 2.03748 1.67253 -2.39033
lowerneck -19.9279 -4.26294 0.629493
upperneck 28.0079 -6.05431 -1.00666
head 12.5546 -2.74529 -1.48422
rclavicle -3.63718e-014 7.54139e-015
rhumerus -31.5883 -17.8146 -79.1163
rradius 24.9662
rwrist -2.03745
rhand -16.3107 -1.98184
rfingers 7.12502
rthumb 9.90039 -31.7291
lclavicle -3.63718e-014 7.54139e-015
lhumerus -32.7166 -2.16092 86.1638
lradius 24.4789
lwrist 6.05441
lhand -13.7451 -2.52842
lfingers 7.12502
lthumb 12.3749 27.0853
rfemur -12.9067 0.180714 23.5992
rtibia 26.9265
rfoot -11.998 -17.8136
rtoes -5.79848
lfemur -14.7178 -3.83065 -12.4512
ltibia 26.8107
lfoot -11.149 16.3437
ltoes -8.21479
1486
root 1.76513 17.8586 43.6736 8.82476 0.549778 -4.0952
lowerback -8.19355 2.97038 5.82715
upperback -2.79571 3.47627 0.411822
thorax 2.00231 1.73013 -2.49081
lowerneck -19.9276 -4.3788 0.485558
upperneck 28.128 -6.2187 -0.868559
head 12.6124 -2.81169 -1.43801
rclavicle -4.87919e-014 -1.5299e-014
rhumerus -31.5798 -17.9033 -79.1328
rradius 25.0111
rwrist -2.01894
rhand -16.2618 -2.03308
rfingers 7.12502
rthumb 9.94759 -31.778
lclavicle -4.87919e-014 -1.5299e-014
lhumerus -32.6279 -2.41321 86.2514
lradius 24.5378
lwrist 6.19996
lhand -13.7402 -2.50008
lfingers 7.12502
lthumb 12.3796 27.1134
rfemur -12.6561 0.185874 23.6496
rtibia 26.8249
rfoot -11.9667 -17.824
rtoes -5.79924
lfemur -14.5301 -3.84447 -12.4179
ltibia 26.8332
lfoot -11.1682 16.3662
ltoes -8.23488
1487
root 1.77011 17.8576 43.6781 8.73986 0.572644 -4.21189
lowerback -8.15115 3.03364 5.95846
upperback -2.79063 3.55323 0.390796
thorax 1.99956 1.76839 -2.57906
lowerneck -19.9031 -4.45973 0.39679
upperneck 28.2235 -6.33875 -0.769939
head 12.6525 -2.85876 -1.4073
rclavicle -1.231e-014 -4.24902e-015
rhumerus -31.5578 -17.939 -79.1736
rradius 25.0456
rwrist -2.00704
rhand -16.231 -2.05738
rfingers 7.12502
rthumb 9.97731 -31.8009
lclavicle -1.231e-014 -4.24902e-015
lhumerus -32.5483 -2.60425 86.3158
lradius 24.6017
lwrist 6.34528
lhand -13.748 -2.49162
lfingers 7.12502
lthumb 12.3721 27.1223
rfemur -12.4944 0.18971 23.764
rtibia 26.7306
rfoot -11.9287 -17.8403
rtoes -5.80832
lfemur -14.44 -3.84902 -12.3143
ltibia 26.8693
lfoot -11.1851 16.3763
ltoes -8.27558
1488
root 1.77556 17.8572 43.683 8.72244 0.582513 -4.28732
lowerback -8.20414 3.06435 6.01689
upperback -2.79928 3.58612 0.374718
thorax 2.02714 1.78518 -2.62214
lowerneck -19.8338 -4.49462 0.37841
upperneck 28.2829 -6.39927 -0.722492
head 12.6646 -2.88032 -1.39556
rclavicle -2.14818e-014 -3.48867e-014
rhumerus -31.5167 -17.8886 -79.2512
rradius 25.0547
rwrist -1.98974
rhand -16.2085 -2.05332
rfingers 7.12502
rthumb 9.99902 -31.7958
lclavicle -2.14818e-014 -3.48867e-014
lhumerus -32.495 -2.69958 86.3421
lradius 24.6823
lwrist 6.48355
lhand -13.7719 -2.49169
lfingers 7.12502
lthumb 12.349 27.1236
rfemur -12.4276 0.195327 23.8297
rtibia 26.6773
rfoot -11.9072 -17.8474
rtoes -5.81105
lfemur -14.4138 -3.8624 -12.2551
ltibia 26.894
lfoot -11.1906 16.4089
ltoes -8.29613
1489
root 1.78113 17.8578 43.6887 8.79358 0.575656 -4.29291
lowerback -8.36923 3.06611 5.96658
upperback -2.83297 3.58196 0.357127
thorax 2.08122 1.7837 -2.60555
lowerneck -19.7373 -4.49005 0.416391
upperneck 28.3296 -6.40719 -0.720827
head 12.6622 -2.87955 -1.40071
rclavicle 4.14252e-014 2.97183e-014
rhumerus -31.4754 -17.7685 -79.3479
rradius 25.0453
rwrist -1.9365
rhand -16.1817 -2.04028
rfingers 7.12502
rthumb 10.0249 -31.7815
lclavicle 4.14252e-014 2.97183e-014
lhumerus -32.4774 -2.69944 86.3367
lradius 24.774
lwrist 6.59548
lhand -13.8072 -2.50707
lfingers 7.12502
lthumb 12.315 27.1103
rfemur -12.476 0.20334 23.8154
rtibia 26.6616
rfoot -11.9015 -17.8447
rtoes -5.81921
lfemur -14.4756 -3.88313 -12.2695
ltibia 26.9111
lfoot -11.189 16.4632
ltoes -8.30512
1490
root 1.78637 17.8591 43.6952 8.92079 0.561233 -4.24367
lowerback -8.60493 3.04778 5.82921
upperback -2.87842 3.55392 0.340059
thorax 2.15494 1.77054 -2.53958
lowerneck -19.6444 -4.46692 0.475682
upperneck 28.3784 -6.38843 -0.741989
head 12.6598 -2.86784 -1.41386
rclavicle 2.07792e-014 3.926e-015
rhumerus -31.4287 -17.6143 -79.448
rradius 25.0266
rwrist -1.86685
rhand -16.1472 -2.01954
rfingers 7.12502
rthumb 10.0582 -31.7592
lclavicle 2.07792e-014 3.926e-015
lhumerus -32.4761 -2.63525 86.3159
lradius 24.8724
lwrist 6.67851
lhand -13.8458 -2.52272
lfingers 7.12502
lthumb 12.2778 27.0969
rfemur -12.6062 0.211857 23.7404
rtibia 26.6904
rfoot -11.9174 -17.842
rtoes -5.82819
lfemur -14.5839 -3.9117 -12.3403
ltibia 26.9022
lfoot -11.1753 16.5258
ltoes -8.29249
1491
root 1.79139 17.8606 43.7015 9.05459 0.550031 -4.19298
lowerback -8.84915 3.01037 5.67223
upperback -2.92868 3.50221 0.333877
thorax 2.22456 1.74536 -2.45411
lowerneck -19.5372 -4.42829 0.549733
upperneck 28.4202 -6.3489 -0.772729
head 12.6508 -2.84699 -1.42911
rclavicle 5.60192e-014 1.93318e-014
rhumerus -31.3854 -17.4253 -79.5549
rradius 25.0018
rwrist -1.7779
rhand -16.1035 -2.0142
rfingers 7.12502
rthumb 10.1003 -31.7518
lclavicle 5.60192e-014 1.93318e-014
lhumerus -32.4947 -2.51886 86.2798
lradius 24.974
lwrist 6.75427
lhand -13.8916 -2.52978
lfingers 7.12502
lthumb 12.2336 27.0924
rfemur -12.7509 0.219061 23.6646
rtibia 26.7289
rfoot -11.9383 -17.8399
rtoes -5.8426
lfemur -14.6983 -3.93838 -12.4099
ltibia 26.8867
lfoot -11.1625 16.5805
ltoes -8.25531
1492
root 1.79498 17.8622 43.7092 9.19711 0.54243 -4.09139
lowerback -9.08564 3.01892 5.48866
upperback -2.98477 3.51636 0.295043
thorax 2.29002 1.75272 -2.38048
lowerneck -19.4904 -4.45452 0.527961
upperneck 28.4939 -6.39095 -0.74297
head 12.6728 -2.86275 -1.42152
rclavicle 5.60511e-014 -6.41081e-015
rhumerus -31.3875 -17.3826 -79.5786
rradius 24.9907
rwrist -1.67019
rhand -16.0496 -2.01551
rfingers 7.12502
rthumb 10.1523 -31.7506
lclavicle 5.60511e-014 -6.41081e-015
lhumerus -32.4924 -2.54476 86.3105
lradius 25.0559
lwrist 6.82492
lhand -13.9263 -2.51888
lfingers 7.12502
lthumb 12.2002 27.1053
rfemur -12.8999 0.229059 23.5367
rtibia 26.7636
rfoot -11.9584 -17.8493
rtoes -5.85419
lfemur -14.8201 -3.96884 -12.531
ltibia 26.8696
lfoot -11.1578 16.6293
ltoes -8.20184
1493
root 1.7984 17.8621 43.7147 9.19124 0.567469 -4.12203
lowerback -9.14004 3.01136 5.44424
upperback -3.00584 3.5071 0.302956
thorax 2.29434 1.74781 -2.34664
lowerneck -19.4668 -4.47439 0.504433
upperneck 28.5704 -6.42336 -0.714165
head 12.7009 -2.87431 -1.41323
rclavicle -4.06515e-014 -2.5345e-015
rhumerus -31.3755 -17.3147 -79.6112
rradius 24.9758
rwrist -1.58492
rhand -16.0097 -2.03519
rfingers 7.12502
rthumb 10.1908 -31.7684
lclavicle -4.06515e-014 -2.5345e-015
lhumerus -32.4817 -2.53941 86.3347
lradius 25.1263
lwrist 6.8849
lhand -13.9388 -2.49307
lfingers 7.12502
lthumb 12.1882 27.1318
rfemur -12.8763 0.231642 23.561
rtibia 26.7759
rfoot -11.9789 -17.8764
rtoes -5.8738
lfemur -14.7999 -4.00236 -12.5079
ltibia 26.8633
lfoot -11.1674 16.6518
ltoes -8.15353
1494
root 1.80143 17.8619 43.7202 9.17207 0.596551 -4.15353
lowerback -9.18365 3.01066 5.41328
upperback -3.01865 3.50645 0.303684
thorax 2.30323 1.74744 -2.32697
lowerneck -19.4639 -4.50344 0.471221
upperneck 28.6403 -6.46897 -0.675348
head 12.7314 -2.89126 -1.40215
rclavicle -9.60378e-015 2.48481e-015
rhumerus -31.3586 -17.2731 -79.6414
rradius 24.9522
rwrist -1.52125
rhand -15.9876 -2.05238
rfingers 7.12502
rthumb 10.2121 -31.7845
lclavicle -9.60378e-015 2.48481e-015
lhumerus -32.4575 -2.562 86.3619
lradius 25.1841
lwrist 6.93878
lhand -13.9336 -2.47438
lfingers 7.12502
lthumb 12.1931 27.1502
rfemur -12.828 0.234215 23.5878
rtibia 26.7649
rfoot -11.9845 -17.9081
rtoes -5.89197
lfemur -14.7741 -4.03756 -12.4835
ltibia 26.8752
lfoot -11.1877 16.6732
ltoes -8.10628
1495
root 1.80439 17.8614 43.7257 9.14479 0.621597 -4.18071
lowerback -9.2208 3.01906 5.39603
upperback -3.0282 3.51726 0.29346
thorax 2.31431 1.75287 -2.32509
lowerneck -19.4735 -4.53984 0.42807
upperneck 28.709 -6.52575 -0.624638
head 12.7649 -2.91243 -1.3871
rclavicle -1.05402e-014 -4.96962e-016
rhumerus -31.347 -17.2612 -79.6681
rradius 24.9259
rwrist -1.49446
rhand -15.9926 -2.07319
rfingers 7.12502
rthumb 10.2073 -31.8056
lclavicle -1.05402e-014 -4.96962e-016
lhumerus -32.4273 -2.61613 86.3924
lradius 25.2352
lwrist 7.00445
lhand -13.9251 -2.46214
lfingers 7.12502
lthumb 12.2013 27.162
rfemur -12.7436 0.235454 23.61
rtibia 26.6987
rfoot -11.958 -17.9329
rtoes -5.9106
lfemur -14.7563 -4.07803 -12.465
ltibia 26.9249
lfoot -11.2285 16.7051
ltoes -8.07944
1496
root 1.80625 17.8609 43.731 9.15885 0.675957 -4.25917
lowerback -9.30432 3.03693 5.43561
upperback -3.04957 3.53266 0.288381
thorax 2.34185 1.7607 -2.34704
lowerneck -19.4869 -4.58751 0.372866
upperneck 28.7739 -6.59893 -0.560772
head 12.7988 -2.9403 -1.36775
rclavicle 2.21226e-014 -1.02374e-014
rhumerus -31.3476 -17.2945 -79.683
rradius 24.8969
rwrist -1.497
rhand -16.019 -2.09002
rfingers 7.12502
rthumb 10.1819 -31.8236
lclavicle 2.21226e-014 -1.02374e-014
lhumerus -32.3961 -2.72021 86.4327
lradius 25.2887
lwrist 7.09446
lhand -13.93 -2.46536
lfingers 7.12502
lthumb 12.1966 27.1591
rfemur -12.6928 0.235451 23.6966
rtibia 26.6056
rfoot -11.9093 -17.9729
rtoes -5.91573
lfemur -14.8043 -4.10195 -12.3788
ltibia 26.9974
lfoot -11.2715 16.7068
ltoes -8.06794
1497
root 1.80858 17.8581 43.7339 8.96428 0.746419 -4.47161
lowerback -9.12568 3.04951 5.64003
upperback -3.02988 3.54155 0.322235
thorax 2.27396 1.76405 -2.43297
lowerneck -19.4918 -4.63016 0.323723
upperneck 28.8326 -6.66473 -0.503017
head 12.828 -2.96531 -1.35011
rclavicle -5.52559e-015 -5.26779e-015
rhumerus -31.3594 -17.3425 -79.6887
rradius 24.8703
rwrist -1.50297
rhand -16.0509 -2.11499
rfingers 7.12502
rthumb 10.151 -31.8501
lclavicle -5.52559e-015 -5.26779e-015
lhumerus -32.372 -2.83329 86.4753
lradius 25.3445
lwrist 7.1962
lhand -13.9519 -2.4929
lfingers 7.12502
lthumb 12.1755 27.1328
rfemur -12.3997 0.223281 23.9333
rtibia 26.4841
rfoot -11.8684 -18.0144
rtoes -5.92973
lfemur -14.6352 -4.10938 -12.159
ltibia 27.0879
lfoot -11.347 16.6748
ltoes -8.06331
